<?xml version="1.0" encoding="UTF-8"?> <svg xmlns="http://www.w3.org/2000/svg" width="63.324" height="91" viewBox="0 0 63.324 91"><g id="_2305601_checklist_list_plan_stackfolder_strategy_icon" data-name="2305601_checklist_list_plan_stackfolder_strategy_icon" transform="translate(-12 -1.758)"><path id="Path_4530" data-name="Path 4530" d="M30.752,11h-11.3A6.455,6.455,0,0,0,13,17.455V80.392a6.455,6.455,0,0,0,6.455,6.455H67.868a6.455,6.455,0,0,0,6.455-6.455V17.455A6.455,6.455,0,0,0,67.868,11h-11.3" transform="translate(0 4.91)" fill="none" stroke="#ff9a22" stroke-linecap="round" stroke-linejoin="round" stroke-width="2"></path><circle id="Ellipse_9" data-name="Ellipse 9" cx="5" cy="5" r="5" transform="translate(39 2.758)" fill="none" stroke="#ff9a22" stroke-linecap="round" stroke-linejoin="round" stroke-width="2"></circle><path id="Path_4531" data-name="Path 4531" d="M31.069,9h12.91a8.069,8.069,0,0,1,8.069,8.069H23A8.069,8.069,0,0,1,31.069,9Z" transform="translate(6.138 3.683)" fill="none" stroke="#ff9a22" stroke-linecap="round" stroke-linejoin="round" stroke-width="2"></path><circle id="Ellipse_10" data-name="Ellipse 10" cx="3" cy="3" r="3" transform="translate(26 38.758)" fill="#ff9a22"></circle><line id="Line_6" data-name="Line 6" x2="20" transform="translate(40 41.758)" fill="none" stroke="#ff9a22" stroke-linecap="round" stroke-linejoin="round" stroke-width="2"></line><circle id="Ellipse_11" data-name="Ellipse 11" cx="3" cy="3" r="3" transform="translate(26 49.758)" fill="#ff9a22"></circle><line id="Line_7" data-name="Line 7" x2="20" transform="translate(40 52.758)" fill="none" stroke="#ff9a22" stroke-linecap="round" stroke-linejoin="round" stroke-width="2"></line><ellipse id="Ellipse_12" data-name="Ellipse 12" cx="3" cy="3.5" rx="3" ry="3.5" transform="translate(26 60.758)" fill="#ff9a22"></ellipse><line id="Line_8" data-name="Line 8" x2="20" transform="translate(40 64.758)" fill="none" stroke="#ff9a22" stroke-linecap="round" stroke-linejoin="round" stroke-width="2"></line></g></svg> 