<?xml version="1.0" encoding="UTF-8"?> <svg xmlns="http://www.w3.org/2000/svg" width="47.857" height="76.117" viewBox="0 0 47.857 76.117"><g id="_7098025_school_education_man_head_teacher_teacher_icon" data-name="7098025_school_education_man_head teacher_teacher_icon" transform="translate(-117 -34.92)"><path id="Path_4537" data-name="Path 4537" d="M212.62,186.382a.86.86,0,0,0,.862-.86v-2.986a.862.862,0,0,0-1.722,0v2.986A.86.86,0,0,0,212.62,186.382Z" transform="translate(-78.354 -121.265)" fill="#ff9a22"></path><path id="Path_4538" data-name="Path 4538" d="M283.411,186.178a.862.862,0,0,0,.862-.86v-2.986a.862.862,0,0,0-1.723,0v2.986A.862.862,0,0,0,283.411,186.178Z" transform="translate(-136.887 -121.065)" fill="#ff9a22"></path><path id="Path_4539" data-name="Path 4539" d="M223.906,232.574a.857.857,0,0,0-.415-1.133.867.867,0,0,0-1.145.4c-.043.087-1.074,2.119-4.506,2.119s-4.469-2.032-4.5-2.11a.862.862,0,1,0-1.565.72c.058.127,1.493,3.112,6.069,3.112S223.848,232.7,223.906,232.574Z" transform="translate(-77.471 -162.281)" fill="#ff9a22"></path><path id="Path_4540" data-name="Path 4540" d="M151.91,84.087A21.983,21.983,0,0,0,162.4,65.378V56.919a22,22,0,1,0-44,0v8.459a21.994,21.994,0,0,0,11.083,19.071C126.062,87.164,117,95.53,117,108.074a.993.993,0,0,0,1.985,0,24.292,24.292,0,0,1,2.61-10.785l4.2,2.171v8.607a.993.993,0,0,0,1.985,0V98.856a.986.986,0,0,0-.539-.881l-4.715-2.436a35.613,35.613,0,0,1,8.917-10.088,21.767,21.767,0,0,0,4.109,1.369l-.124,1.472a4.551,4.551,0,0,0,2.62,4.758l-3.071,12.61a1,1,0,0,0,.329,1l4.992,4.149a.992.992,0,0,0,1.272,0l4.992-4.149a1,1,0,0,0,.329-1l-3.071-12.61a4.547,4.547,0,0,0,2.62-4.76l-.146-1.737a21.852,21.852,0,0,0,3.71-1.408,35.029,35.029,0,0,1,9.344,10.393l-4.736,2.438a.986.986,0,0,0-.539.881v9.219a.993.993,0,0,0,1.985,0V99.467l4.207-2.173a24.315,24.315,0,0,1,2.6,10.787.993.993,0,0,0,1.985,0C164.857,94.927,154.892,86.358,151.91,84.087ZM140.4,36.907a20.033,20.033,0,0,1,20.011,20.012v1.455l-8.134-9.9a1,1,0,0,0-1.635.15c-.021.034-2.1,3.5-10.241,3.5s-10.222-3.469-10.236-3.491a.992.992,0,0,0-.778-.516.928.928,0,0,0-.861.356l-8.134,9.9V56.921A20.035,20.035,0,0,1,140.4,36.907ZM120.386,65.378V61.5l8.905-10.845C130.653,52,133.834,54.1,140.4,54.1s9.745-2.1,11.107-3.443l8.9,10.845v3.873a20.012,20.012,0,0,1-40.024,0Zm24.416,40.15-3.873,3.224-3.873-3.224,2.927-12.007h1.894Zm-.355-17.072c.11,1.308-.191,2.159-2.03,3.08h-2.978c-1.839-.921-2.14-1.771-2.03-3.078l.108-1.295a20.384,20.384,0,0,0,6.807-.16Z" transform="translate(0 0)" fill="#ff9a22"></path></g></svg> 