<?xml version="1.0" encoding="UTF-8"?> <svg xmlns="http://www.w3.org/2000/svg" width="80.997" height="81.014" viewBox="0 0 80.997 81.014"><path id="Path_6823" data-name="Path 6823" d="M471.168,509.476h-5.062a3.363,3.363,0,0,0-.528-.126,39.025,39.025,0,0,1-19.129-6.536,40.01,40.01,0,0,1-17.69-26.86c-.273-1.47-.417-2.963-.621-4.446v-5.062c.117-.964.213-1.931.355-2.891a39.754,39.754,0,0,1,15.1-26.335,40.448,40.448,0,0,1,55.292,58.631,39.863,39.863,0,0,1-23.19,12.994C474.194,509.116,472.677,509.268,471.168,509.476Zm-21.263-73.467a9.185,9.185,0,0,0,6.936.816c.582-.162,1.186-.246,1.774-.388,3.207-.771,6.22-.7,8.76,1.82a4.24,4.24,0,0,0,2.212.986c.9.182,1.822.305,2.7.556a3.431,3.431,0,0,1,2.689,3.309,13.588,13.588,0,0,1-.745,5.364,3.489,3.489,0,0,1-2.8,2.494c-.465.09-.922.223-1.388.307a23.914,23.914,0,0,0-7.495,2.842,4.535,4.535,0,0,0-2.522,3.08,4.451,4.451,0,0,1-3.883,3.722c-1.389.3-2.8.5-4.188.8-1.057.223-1.178.486-.735,1.483.57,1.281,1.466,2.376,2.125,3.6a2.726,2.726,0,0,0,3.261,1.5,11.689,11.689,0,0,1,4.4-.223,37.281,37.281,0,0,1,10.418,3.807,12.731,12.731,0,0,1,3.9,3.043,4.713,4.713,0,0,1,1.1,3.595,14.457,14.457,0,0,1-2.56,6.879c-1.1,1.585-2.425,2.986-3.6,4.508a10.627,10.627,0,0,0-2.248,5.232,20.865,20.865,0,0,1-.5,2.636,9.78,9.78,0,0,1-2.448,4.792,3.047,3.047,0,0,1-4.619-.071,8.235,8.235,0,0,1-1.6-2.522,30.927,30.927,0,0,1-1.9-6.992c-.7-3.8-1.865-7.283-5.525-9.387a5.692,5.692,0,0,1-2.4-3.695,22.981,22.981,0,0,1-.588-5.329,6.677,6.677,0,0,0-1.847-4.418,11.755,11.755,0,0,0-2.919-2.142,24.961,24.961,0,0,1-9.236-9.111c-.514-.88-.972-1.792-1.469-2.713a37.768,37.768,0,0,0,19.078,46.9,36.8,36.8,0,0,0,28.5,1.935,37.316,37.316,0,0,0,15.888-10.206c-.656-.083-1.153-.122-1.641-.212a3.14,3.14,0,0,1-2.725-4.019c.159-.8.361-1.595.46-2.4.385-3.133-.113-6.26-.1-9.392a8.2,8.2,0,0,0-.32-2.184c-.475-1.742-1.152-2.3-2.953-2.392q-1.816-.093-3.633-.155a8.253,8.253,0,0,1-6.563-3.842,5.221,5.221,0,0,1-.838-1.862,6.286,6.286,0,0,1,.907-4.688c.529-.941,1.113-1.85,1.658-2.782a2.141,2.141,0,0,0,.306-1.948,1.646,1.646,0,0,1,.11-1.234,5.692,5.692,0,0,1,2.552-2.811,2.373,2.373,0,0,1,1.759-.265,38.845,38.845,0,0,0,10.048.884c1.091-.007,1.76-.844,1.762-2.132,0-.862-.618-1.333-1.8-1.291-.789.028-1.574.141-2.363.2a38.4,38.4,0,0,1-6.626.252,2.1,2.1,0,0,1-1.945-1.477,9.53,9.53,0,0,1-.609-3.483c.046-2.415.748-4.506,2.964-5.841a19.057,19.057,0,0,1,3.267-1.571c.711-.262,1.425-.514,2.172-.783A37.652,37.652,0,0,0,449.906,436.009Zm5.625,34.9a3.885,3.885,0,0,1-3.376-1.421,19.455,19.455,0,0,1-3.524-6.04,2.9,2.9,0,0,1,1.829-3.9,7,7,0,0,1,1.284-.382c1.368-.273,2.744-.5,4.111-.778a2,2,0,0,0,1.7-1.719,6.519,6.519,0,0,1,3.005-4.282,25.125,25.125,0,0,1,7.889-3.337c.769-.177,1.551-.3,2.318-.479a1.7,1.7,0,0,0,1.331-1.409c.169-.825.337-1.652.47-2.483.282-1.751-.217-2.512-1.978-2.7a10.065,10.065,0,0,1-5.835-2.531,3.963,3.963,0,0,0-3.1-.906,20.728,20.728,0,0,0-3.655.628,12.2,12.2,0,0,1-8.562-.543c-.615-.29-1.3-.423-1.939-.67a.876.876,0,0,0-.936.143,38.149,38.149,0,0,0-12.006,14.14,1.028,1.028,0,0,0-.078.891A23.287,23.287,0,0,0,444.7,465.68a28.11,28.11,0,0,1,2.4,1.527,8.814,8.814,0,0,1,3.763,6.074c.166,1.224.154,2.472.225,3.708.135,2.333.888,4.273,3.07,5.522a8.92,8.92,0,0,1,3.56,4.231,33.165,33.165,0,0,1,2.063,7.519,19.793,19.793,0,0,0,1.625,5.183c.326.641.615,1.558,1.421,1.537.784-.021,1.074-.922,1.408-1.57a9.356,9.356,0,0,0,1.079-3.45,15.591,15.591,0,0,1,4.409-9.4c.447-.483.854-1,1.263-1.521a12.4,12.4,0,0,0,2.438-4.392c.867-3.185.918-3.842-2.112-5.87a32.8,32.8,0,0,0-9.359-3.916,8.922,8.922,0,0,0-3.9-.21C457.213,470.778,456.369,470.827,455.531,470.912Zm51.079-1.473a38.7,38.7,0,0,0-1.439-10.8,37.826,37.826,0,0,0-10.106-16.885c-.2-.2-.345-.54-.775-.377a34.588,34.588,0,0,0-6.053,2.469,3.433,3.433,0,0,0-1.712,3.01,7,7,0,0,0,.024,1.342c.34,2.167-.044,1.991,2.214,1.86,2.209-.129,4.41-.379,6.619-.5A3.94,3.94,0,0,1,499.6,452.2a5.382,5.382,0,0,1-1.952,5.4,2.293,2.293,0,0,1-1.042.33,40.477,40.477,0,0,1-11.316-.725c-.685-.142-1.872.819-1.722,1.5a5.282,5.282,0,0,1-.945,3.885c-.575,1.005-1.273,1.939-1.749,3a2.9,2.9,0,0,0-.112,2.666,5.68,5.68,0,0,0,3.785,3.09,25.381,25.381,0,0,0,4.565.329c2.055.084,3.834.7,4.851,2.68a8.781,8.781,0,0,1,.773,2.395,61.235,61.235,0,0,1,.357,6.383,23.526,23.526,0,0,1-.553,8c-.156.6.105.813.609.955a4.969,4.969,0,0,0,4.85-1.747A37.482,37.482,0,0,0,506.609,469.439Z" transform="translate(-428.139 -428.461)" fill="#ff9a22"></path></svg> 