<?xml version="1.0" encoding="UTF-8"?> <svg xmlns="http://www.w3.org/2000/svg" width="73.823" height="65.777" viewBox="0 0 73.823 65.777"><path id="_7112641_teamwork_harmonious_hand_charity_gesture_icon" data-name="7112641_teamwork_harmonious_hand_charity_gesture_icon" d="M91.081,96.223,82.1,80.659a8.065,8.065,0,0,0-4.624-3.692L63.839,53.353l.41-.712a2.851,2.851,0,0,0,.269-2.231,3.012,3.012,0,0,0-1.4-1.779,3.046,3.046,0,0,0-1.658-.406A2.857,2.857,0,0,0,61.4,47a2.99,2.99,0,0,0-1.414-1.833,3.021,3.021,0,0,0-2.3-.31,2.9,2.9,0,0,0-1.093.559,3.026,3.026,0,0,0-1.182-1.239,2.993,2.993,0,0,0-2.244-.321,2.857,2.857,0,0,0-1.72,1.222,3.054,3.054,0,0,0-3.374-1.364,2.863,2.863,0,0,0-1.75,1.336L37.346,60.614a8.062,8.062,0,0,0-.887,5.843L22.832,90.065h-.849a2.954,2.954,0,0,0-2.91,2.99,3.033,3.033,0,0,0,.478,1.64,3.018,3.018,0,0,0,0,5.618,3.029,3.029,0,0,0-.478,1.64,2.959,2.959,0,0,0,2.764,2.986,3.029,3.029,0,0,0-.375,1.465,2.955,2.955,0,0,0,2.911,2.989H42.344a8.052,8.052,0,0,0,5.5-2.154H75.123l.415.717a2.9,2.9,0,0,0,2.526,1.435,3.055,3.055,0,0,0,2.7-1.645,2.942,2.942,0,0,0,1.869.664,3.049,3.049,0,0,0,2.921-2.193,2.881,2.881,0,0,0,.076-1.281h.139a3.049,3.049,0,0,0,2.933-2.244,2.851,2.851,0,0,0-.211-2.052,3.046,3.046,0,0,0,1.457-.407A2.95,2.95,0,0,0,91.081,96.223ZM37.93,66.956a.765.765,0,0,0,.076-.579,6.547,6.547,0,0,1,.658-5l8.981-15.564a1.327,1.327,0,0,1,.819-.619,1.465,1.465,0,0,1,1.132.155,1.42,1.42,0,0,1,.585,1.9l-4.5,7.8a.765.765,0,0,0,.282,1.045A.774.774,0,0,0,47,55.819l.026-.045v-.009l4.461-7.726.025-.045,1.169-2.025a1.329,1.329,0,0,1,.842-.627,1.519,1.519,0,0,1,1.806,1.042,1.325,1.325,0,0,1-.124,1.044l-5.686,9.85a.774.774,0,0,0,.282,1.047.709.709,0,0,0,.077.037l.046.017.025.009a.754.754,0,0,0,.234.037.774.774,0,0,0,.562-.248l.019-.022a.285.285,0,0,0,.033-.04.4.4,0,0,0,.05-.073l6.4-11.09a1.321,1.321,0,0,1,.819-.619,1.519,1.519,0,0,1,1.847,1.058,1.316,1.316,0,0,1-.129,1.02l-.708,1.225-.011.017L53.388,59.5a.774.774,0,0,0,.282,1.047.688.688,0,0,0,.076.037l.053.02h.017a.754.754,0,0,0,.748-.155l.009-.008.036-.036c.011-.012.022-.023.031-.036s.017-.02.025-.029a.816.816,0,0,0,.051-.076l5.691-9.861a1.431,1.431,0,0,1,1.95-.454,1.483,1.483,0,0,1,.7.88,1.326,1.326,0,0,1-.124,1.044l-6.1,10.561a.623.623,0,0,0-.037.074l-1.626,2.828A.767.767,0,0,0,56.5,66.1l2.214-3.836A2.777,2.777,0,0,1,62.5,61.252l.342.271-4.327,7.493a5.11,5.11,0,0,1-2.374,2.128.748.748,0,0,0-.155.065h0c-.155.063-.319.119-.483.169l-5.445,1.846a.774.774,0,0,0-.42.344L42.344,86.2a6.638,6.638,0,0,0-3.306-.872H30.391A1.6,1.6,0,0,0,28.8,86.923v.364a4.285,4.285,0,0,0,1.02,2.78H24.588ZM62.2,90.663l-.014.07H47.7l-4.076-3.576-.046-.042,7.235-12.534,5.133-1.741.073-.023,7.235,12.531ZM47.541,105.706a.765.765,0,0,0-.542.226,6.629,6.629,0,0,1-4.655,1.929H24.382a1.463,1.463,0,0,1,0-2.921h8.981a.765.765,0,0,0,0-1.53H21.983a1.462,1.462,0,0,1,0-2.919H33.355a.765.765,0,1,0,0-1.53H20.549a1.46,1.46,0,0,1,0-2.917H33.355a.767.767,0,1,0,0-1.531H21.983a1.462,1.462,0,0,1,0-2.917H34.178a.63.63,0,0,0,.077,0h3.27a.765.765,0,1,0,0-1.53H33.1a2.778,2.778,0,0,1-2.773-2.776l.063-.427h8.652A5.144,5.144,0,0,1,42.6,88.293l4.313,3.786a.774.774,0,0,0,.5.189H62.012a6.634,6.634,0,0,0,.9,3.281l4.327,7.492a1.6,1.6,0,0,0,2.177.592l.31-.183a4.282,4.282,0,0,0,1.9-2.273l2.617,4.529Zm41.64-6.793a1.422,1.422,0,0,1-1.953-.465l-2.62-4.539-1.877-3.243a.767.767,0,1,0-1.329.765l.029.051h0l1.239,2.139,4.426,7.657a1.33,1.33,0,0,1,.127,1.02,1.476,1.476,0,0,1-.7.9,1.423,1.423,0,0,1-1.942-.446l-5.7-9.869a.774.774,0,0,0-.2-.228l-.028-.019-.033-.022a.765.765,0,0,0-1.166.672.775.775,0,0,0,.1.362l5.689,9.85.015.023.7,1.22a1.338,1.338,0,0,1,.121,1.044,1.485,1.485,0,0,1-.7.88,1.418,1.418,0,0,1-1.951-.465l-6.4-11.09a.765.765,0,0,0-.266-.269.432.432,0,0,0-.053-.028H74.7a.765.765,0,0,0-1,1.068l5.689,9.85a1.329,1.329,0,0,1,.127,1.02,1.471,1.471,0,0,1-.7.9,1.417,1.417,0,0,1-1.953-.465l-6.1-10.562c-.011-.019-.023-.037-.036-.056l-1.64-2.842a.767.767,0,1,0-1.327.765l2.211,3.836a2.775,2.775,0,0,1-1.014,3.791l-.4.155-4.336-7.493a5.119,5.119,0,0,1-.649-3.111A.722.722,0,0,0,63.6,91.5h0c.023-.169.056-.338.1-.5l1.121-5.629a.774.774,0,0,0-.087-.533L57.433,72.2a6.649,6.649,0,0,0,2.4-2.417l4.328-7.495a1.6,1.6,0,0,0-.584-2.176l-.317-.177a4.283,4.283,0,0,0-2.92-.5l2.62-4.542L76.3,78.007a.774.774,0,0,0,.465.358,6.538,6.538,0,0,1,4,3.069L89.755,96.99A1.426,1.426,0,0,1,89.181,98.913Z" transform="translate(-17.637 -43.615)" fill="#ff9a22"></path></svg> 