<svg xmlns="http://www.w3.org/2000/svg" width="126.33" height="41.995" viewBox="0 0 126.33 41.995">
  <path id="Path_334" data-name="Path 334" d="M404.4,526.829c.01-.281-.193-.42-.322-.58-4.207-5.2-8.487-10.364-12.589-15.606a8.9,8.9,0,0,1-.586-.816,1.427,1.427,0,0,1,.863-2.007,2.441,2.441,0,0,1,2.7.526c2.175,2.409,4.195,4.888,6.214,7.367,3.177,3.9,6.374,7.791,9.368,11.769a1.526,1.526,0,0,1,.028,2.126c-4.945,6.486-10.062,12.9-15.533,19.156a2.263,2.263,0,0,1-2.788.622c-1.07-.486-1.355-1.347-.686-2.213,4.217-5.46,8.659-10.825,13-16.231.04-.05.085-.1.124-.147.414-.521.407-.534-.444-.536q-11.543-.024-23.085-.045-47.12-.068-94.241-.134c-1.281,0-1.937-.314-2.2-1.043a1.739,1.739,0,0,1,1.17-1.941,2.066,2.066,0,0,1,.848-.079q24.153-.042,48.306-.078l69.02-.108Z" transform="translate(-284.163 -507.626)" fill="#000"/>
</svg>
