<?xml version="1.0" encoding="UTF-8"?> <svg xmlns="http://www.w3.org/2000/svg" width="161.389" height="158.182" viewBox="0 0 161.389 158.182"><g id="Group_795" data-name="Group 795" transform="translate(0)"><g id="lPyDl2.tif" transform="translate(0 0)"><g id="Group_785" data-name="Group 785" transform="translate(0 0)"><path id="Path_7087" data-name="Path 7087" d="M778.017,460.953a3.371,3.371,0,0,1-1.16-2.788q.046-31.943.026-63.885c0-2.253.522-2.695,3.145-2.7q9.688-.008,19.375,0c.914,0,1.928.182,1.829-1.13-.079-1.047.372-2.26-1.607-2.366a17.445,17.445,0,0,1-4.386-.97c-6.784-2.178-9.655-6.84-7.96-12.984a21.932,21.932,0,0,1,2.2-5.156q4.9-8.465,9.747-16.95c.841-1.48,1.834-2.672,3.951-2.643,2.011.028,2.979,1.158,3.791,2.587,3.247,5.715,6.551,11.406,9.834,17.105a19.311,19.311,0,0,1,2.489,6.866c.666,4.55-1.555,8.295-6.234,10.409a22.387,22.387,0,0,1-6.759,1.809c-1.916.215-1.162,1.487-1.288,2.4-.146,1.059.7,1.026,1.533,1.025,5.8-.007,11.6-.043,17.4.025,1.4.016,1.589-.47,1.584-1.511-.039-7.482.017-14.964-.054-22.446a3.509,3.509,0,0,1,1.87-3.326c8.124-5.208,16.178-10.5,24.283-15.731a1.3,1.3,0,0,0,.753-1.262,14.862,14.862,0,0,1,.011-2.415c.141-1.16-.365-1.668-1.7-1.76a19.517,19.517,0,0,1-4.571-1.041c-6.664-2.125-9.713-6.945-8.205-12.994a22,22,0,0,1,2.313-5.67c3.492-6.058,7.02-12.1,10.461-18.181a4.19,4.19,0,0,1,3.89-2.47,4.061,4.061,0,0,1,3.733,2.4c3.488,6.124,7.051,12.215,10.533,18.341a17.169,17.169,0,0,1,2.582,8.593c-.017,3.991-2.039,6.94-5.94,8.931a21.345,21.345,0,0,1-7.455,2.127c-1.322.143-1.8.557-1.875,1.832-.125,2.122.547,3.472,2.661,4.783,7.571,4.7,14.915,9.669,22.4,14.475a3.572,3.572,0,0,1,1.908,3.324q-.071,22.359-.017,44.72c0,.55-.334,1.308.262,1.607.613.308,1.172-.354,1.713-.637,5.759-3.016,11.466-6.11,17.279-9.044,1.554-.784.949-1.842,1.024-2.828.081-1.071-1-.839-1.708-.965a27.974,27.974,0,0,1-5.1-1.3c-6.044-2.293-8.589-6.7-7.155-12.327a21.772,21.772,0,0,1,2.264-5.5c3.279-5.7,6.577-11.392,9.827-17.106a4.125,4.125,0,0,1,3.855-2.5c2.014.01,3.012,1.12,3.824,2.548,3.25,5.714,6.556,11.4,9.818,17.112a16.916,16.916,0,0,1,2.589,8.239q.053,5.88-5.775,8.8a24.181,24.181,0,0,1-6.882,2.04c-.66.113-1.68-.081-1.6.861.079.98-.642,2.084.9,2.879q11.057,5.7,22,11.567a76.16,76.16,0,0,1,7.966,4.419c0,13.055-.039,26.111.053,39.166.011,1.5-.495,1.625-1.984,1.623Q857.14,460.928,778.017,460.953ZM825.5,426.275c0-9.841-.033-19.682.037-29.523.01-1.391-.32-1.841-2.022-1.833q-20.361.1-40.723,0c-1.618-.007-2.084.319-2.08,1.781q.089,29.523,0,59.046c0,1.385.314,1.849,2.02,1.841q20.362-.1,40.723,0c1.624.007,2.092-.331,2.081-1.789C825.467,445.958,825.5,436.116,825.5,426.275Zm79.92,31.263c8.963,0,17.926-.029,26.888.028,1.5.01,2-.274,1.995-1.682-.072-10.878-.057-21.756-.013-32.634a2.179,2.179,0,0,0-1.424-2.179q-12.7-6.658-25.332-13.42a4.161,4.161,0,0,0-4.376-.019q-12.539,6.727-25.169,13.324a2.454,2.454,0,0,0-1.624,2.436q.093,16.23,0,32.461c-.008,1.358.412,1.729,1.969,1.718C887.367,457.5,896.4,457.538,905.424,457.538Zm-26.163-82.271c0-2.187-.029-4.375.014-6.562.017-.861-.285-1.106-1.271-.89-2.106.46-4.236.837-6.356,1.249q-20.33,3.95-40.665,7.883c-1,.193-1.662.366-1.645,1.479.067,4.259.056,8.519.007,12.779-.012.993.411,1.19,1.41.985,2.241-.462,4.492-.892,6.741-1.328,13.234-2.564,26.464-5.146,39.71-7.663,1.533-.291,2.247-.733,2.1-2.235C879.124,379.076,879.263,377.166,879.261,375.267Zm0,18.642c0-2.129-.041-4.26.018-6.388.027-.98-.246-1.34-1.455-1.1q-23.59,4.63-47.2,9.185c-1,.192-1.279.552-1.274,1.377.03,4.258.044,8.518-.007,12.776-.013,1.1.438,1.207,1.534.992q23.4-4.59,46.814-9.1c1.2-.231,1.649-.611,1.6-1.7C879.2,397.94,879.263,395.924,879.262,393.909Zm-49.886,27.969c0,2.129.059,4.258-.024,6.385-.045,1.145.312,1.31,1.581,1.058,12.441-2.463,24.9-4.849,37.35-7.292,1.858-.365,4.139-.126,4.932-2.33.107-.3.717-.469,1.11-.677,1.295-.685,2.579-1.386,3.9-2.028a1.626,1.626,0,0,0,1.065-1.664c-.047-3.048-.071-6.1.007-9.146.029-1.139-.371-1.377-1.6-1.137q-23.389,4.579-46.8,9.081c-1.223.234-1.6.662-1.552,1.711C829.436,417.849,829.375,419.865,829.376,421.878Zm43.163,10.466c0-2.13-.042-4.26.019-6.388.028-.991-.217-1.264-1.437-1.025q-20.125,3.955-40.28,7.793c-1.252.238-1.521.738-1.5,1.748.064,2.934-.028,5.871.043,8.8.038,1.587-.828,3.749.4,4.581.918.623,3.321-.385,5.049-.718q18.021-3.471,36.04-6.95c1.2-.23,1.777-.615,1.7-1.805C872.447,436.377,872.539,434.359,872.539,432.344ZM854.49,306.169c-.288.427-.467.66-.61.908q-5.16,9.02-10.314,18.042a18.211,18.211,0,0,0-1.738,4.023c-1.463,5.1.574,8.361,6.284,10.029.993.29,2.046.421,3.047.695,1.054.287,1.235-.136,1.224-.927-.029-2.3,0-4.6-.012-6.9-.008-1.118.394-1.978,1.827-2.016,1.553-.041,2,.884,2.022,2.051.019,1.208.007,2.416.007,3.624,0,5.039.229,5.163,5.775,3.142,4.387-1.6,6.111-4.238,5.483-8.32a12.8,12.8,0,0,0-1.526-4.438C862.2,319.5,858.4,312.943,854.49,306.169Zm21,58.7c-.635-.461-.968-.725-1.326-.959-5.961-3.893-11.952-7.751-17.87-11.694a3.128,3.128,0,0,0-4.019.007c-6.071,4.052-12.069,8.211-18.4,11.93-3.5,2.053-5.145,4.294-4.6,7.995.225,1.515.676,1.6,2.09,1.324,7.057-1.4,14.13-2.734,21.193-4.109C860.067,367.906,867.571,366.426,875.486,364.874ZM803.135,352.8c-3.848,6.7-7.563,13.1-11.177,19.538a12.52,12.52,0,0,0-1.186,3.63c-.687,3.348.907,6.006,4.41,7.514a23.026,23.026,0,0,0,4.688,1.29c1.129.223,1.411-.116,1.383-1.013-.037-1.206-.011-2.414.008-3.622a1.872,1.872,0,0,1,3.741.008c.021,1.265.016,2.53.025,3.795,0,.575.091,1.012,1,.875,6.286-.944,11.481-3.649,8.9-10.894a7.965,7.965,0,0,0-.5-1.3C810.721,366.1,807,359.575,803.135,352.8Zm102.169,12.7c-.447.1-.5.494-.667.776q-4.9,8.458-9.764,16.931a16.61,16.61,0,0,0-1.636,3.872c-1.3,4.724.66,7.8,5.972,9.348.932.271,1.906.427,2.856.653,1,.239,1.407-.006,1.374-.982-.072-2.127-.023-4.257-.018-6.385a1.927,1.927,0,1,1,3.854-.069c.032,1.38.012,2.761.013,4.142,0,3.914,0,3.914,4.36,2.594,5.1-1.544,7.027-4.57,5.81-9.138a7.572,7.572,0,0,0-.615-1.815q-5.64-9.954-11.341-19.881C905.482,365.52,905.381,365.525,905.3,365.509Zm-54.341,92.045c6.583,0,13.167-.041,19.75.031,1.5.016,1.893-.368,1.86-1.647-.1-3.735-.072-7.474-.011-11.211.019-1.143-.23-1.44-1.641-1.162-12.245,2.419-24.513,4.75-36.768,7.131-4.92.956-4.865.984-4.822,5.447.011,1.147.42,1.442,1.685,1.433C837.665,457.528,844.314,457.554,850.963,457.554Z" transform="translate(-776.857 -302.803)" fill="#00"></path><path id="Path_7088" data-name="Path 7088" d="M1055.984,670.861c.55-2.871,1.088-5.94,1.753-8.988a1.754,1.754,0,0,0-.737-1.959c-2.394-1.977-4.733-4-7.1-6-.732-.618-1.406-1.238-1.068-2.239.346-1.026,1.319-1.153,2.326-1.28,3.193-.4,6.374-.891,9.576-1.2a2.607,2.607,0,0,0,2.341-1.5c1.375-2.547,2.847-5.054,4.255-7.587a2.222,2.222,0,0,1,4.171-.011c1.386,2.479,2.852,4.924,4.186,7.424a2.859,2.859,0,0,0,2.623,1.678c3.271.293,6.513.827,9.771,1.242.914.117,1.667.383,1.927,1.233a1.811,1.811,0,0,1-.793,2c-2.423,2.034-4.8,4.108-7.251,6.117a1.978,1.978,0,0,0-.844,2.255c.643,2.7,1.115,5.43,1.639,8.151.175.906.445,1.862-.58,2.546s-1.992.244-2.942-.194c-2.851-1.315-5.723-2.6-8.544-3.961a2.608,2.608,0,0,0-2.542.024q-4.5,2.162-9.086,4.176C1057.211,673.587,1055.91,672.812,1055.984,670.861Zm27.948-17.553c-2.835-.376-5.358-.806-7.9-1.015a3.4,3.4,0,0,1-3.072-2.027c-1.051-2.012-2.241-3.968-3.55-6.259-1.347,2.377-2.534,4.4-3.644,6.46a3.226,3.226,0,0,1-2.841,1.795c-2.617.249-5.211.679-7.775,1.028,1.956,1.795,3.721,3.5,5.594,5.1a2.657,2.657,0,0,1,1.014,2.935c-.534,2.217-.9,4.466-1.409,7.046,2.51-1.139,4.708-2.033,6.78-3.112a4.441,4.441,0,0,1,4.571-.02c2.055,1.092,4.253,1.978,6.76,3.122-.455-2.431-.724-4.532-1.271-6.577a3.243,3.243,0,0,1,1.411-3.8C1080.4,656.589,1082.015,655.006,1083.932,653.307Z" transform="translate(-940.948 -522.386)" fill="#000"></path></g></g></g></svg> 