<svg xmlns="http://www.w3.org/2000/svg" width="165.579" height="217.213" viewBox="0 0 165.579 217.213">
  <path id="Subtraction_2" data-name="Subtraction 2" d="M218.4,461.063a101.227,101.227,0,0,1-20.253-2.042A99.947,99.947,0,0,1,162.207,443.9a100.791,100.791,0,0,1-36.41-44.216,100,100,0,0,1-5.856-18.864c-.459-2.242-.846-4.537-1.151-6.821h26.642c.107.6.223,1.2.346,1.805a73.977,73.977,0,0,0,11.191,26.6,74.6,74.6,0,0,0,32.724,26.947,73.987,73.987,0,0,0,13.961,4.334,75.1,75.1,0,0,0,29.979,0,73.969,73.969,0,0,0,26.6-11.191,74.587,74.587,0,0,0,26.947-32.724,73.991,73.991,0,0,0,4.334-13.961c.122-.6.238-1.2.346-1.805H318c-.305,2.287-.692,4.581-1.151,6.821a99.948,99.948,0,0,1-15.121,35.935,100.778,100.778,0,0,1-44.215,36.41,99.991,99.991,0,0,1-18.864,5.856A101.236,101.236,0,0,1,218.4,461.063Z" transform="matrix(0.438, -0.899, 0.899, 0.438, -388.224, 121.866)" fill="#ff9a22"/>
</svg>
