<svg xmlns="http://www.w3.org/2000/svg" width="114.951" height="145.878" viewBox="0 0 114.951 145.878">
  <path id="Subtraction_6" data-name="Subtraction 6" d="M185.706,433.031a67.4,67.4,0,0,1-13.606-1.384,66.818,66.818,0,0,1-24.141-10.252,68.183,68.183,0,0,1-28.394-42.769c-.308-1.52-.568-3.076-.773-4.625h17.9c.072.4.15.817.232,1.224a50.486,50.486,0,0,0,21.015,31.654,49.553,49.553,0,0,0,55.874,0,50.46,50.46,0,0,0,21.015-31.654c.082-.4.16-.816.232-1.224h17.564c-.2,1.55-.465,3.106-.773,4.625a68.214,68.214,0,0,1-28.394,42.769,66.787,66.787,0,0,1-37.748,11.637Z" transform="matrix(-0.469, 0.883, -0.883, -0.469, 500.942, 98.409)" fill="#61d076"/>
</svg>
