<svg xmlns="http://www.w3.org/2000/svg" width="95" height="92.3" viewBox="0 0 95 92.3">
  <g id="VCln0u.tif" transform="translate(-441.97 -449.432)">
    <g id="Group_33" data-name="Group 33" transform="translate(441.97 449.432)">
      <path id="Path_339" data-name="Path 339" d="M513.244,525.9a17.185,17.185,0,0,0,9.608,1.34,19.233,19.233,0,0,0,5.227-1.6,17.093,17.093,0,0,1,7.337-1.479q1.587.033,1.639,1.277c.036.859-.535,1.4-1.618,1.409a18.875,18.875,0,0,0-7.373,1.745,18.848,18.848,0,0,1-15.427,0,18.154,18.154,0,0,0-15.342-.017,18.593,18.593,0,0,1-15.507-.018,18.006,18.006,0,0,0-15.25.019,18.783,18.783,0,0,1-15.336.066,19.441,19.441,0,0,0-7.56-1.8c-1.026,0-1.572-.534-1.563-1.364s.563-1.3,1.6-1.319a17.768,17.768,0,0,1,7.88,1.7,17.167,17.167,0,0,0,13.437.467c.766-.275.914-.5.387-1.244a70.754,70.754,0,0,1-11.621-27.175,48.088,48.088,0,0,1-.947-11.5,1.856,1.856,0,0,1,1.372-1.877c3.842-1.466,7.657-3,11.5-4.463a1.424,1.424,0,0,0,1.13-1.593c-.068-4.118.082-8.243-.064-12.357a4.643,4.643,0,0,1,5.059-5.1c3.527.131,7.062.009,10.593.05.744.008.928-.2.917-.93-.042-2.942-.02-5.885-.016-8.827,0-1.444.429-1.88,1.855-1.883q4.414-.009,8.828,0c1.42,0,1.842.44,1.845,1.893,0,2.943.028,5.885-.017,8.827-.011.745.2.925.93.918,3.629-.037,7.258-.021,10.888-.016a4.325,4.325,0,0,1,4.715,4.683c.009,4.348.016,8.7-.012,13.045a1.014,1.014,0,0,0,.776,1.131c3.84,1.47,7.65,3.021,11.5,4.459a2.311,2.311,0,0,1,1.737,2.448,59.03,59.03,0,0,1-3.714,21.014A69.256,69.256,0,0,1,513.7,525.2C513.553,525.412,513.42,525.634,513.244,525.9Zm-22.258-39.415c-.023.294-.051.482-.051.67q0,19.706-.018,39.411c0,.759.277.856.916.771a18.273,18.273,0,0,0,5.226-1.577,19.079,19.079,0,0,1,12.168-1.16,1.827,1.827,0,0,0,2.22-.891,70.912,70.912,0,0,0,10.767-24.078c.191-.779.035-1.068-.7-1.35q-13.837-5.327-27.651-10.711C492.929,487.212,491.989,486.867,490.986,486.489ZM488.2,506.952q0-9.8.007-19.606c0-.577.02-.917-.762-.612q-15,5.844-30.024,11.625c-.6.233-.7.531-.54,1.1.46,1.6.831,3.223,1.33,4.809a69.105,69.105,0,0,0,9.6,19.614,1.506,1.506,0,0,0,1.821.77,19.381,19.381,0,0,1,12.725,1.237,17.364,17.364,0,0,0,4.86,1.446c.73.109,1.01-.043,1.005-.876C488.187,519.958,488.2,513.455,488.2,506.952Zm-18.7-28.465c.27-.065.366-.077.454-.112q9.338-3.655,18.671-7.324a2.258,2.258,0,0,1,1.785-.042c4.092,1.623,8.2,3.221,12.295,4.825,2.269.888,4.539,1.773,6.868,2.682.026-.339.057-.564.057-.789q0-5.978,0-11.957c0-1.461-.55-1.989-2.03-1.989q-18.034,0-36.068,0c-1.482,0-2.02.526-2.027,1.99-.012,2.45,0,4.9,0,7.35Zm18.7-4.236a1.931,1.931,0,0,0-.353.053q-15.9,6.211-31.8,12.417c-.506.2-.581.509-.58.971a58.061,58.061,0,0,0,.577,7.513c.085.63.315.7.884.473,4.125-1.625,8.263-3.219,12.4-4.822q9.028-3.5,18.054-7c.367-.143.83-.156.826-.775C488.19,480.145,488.2,477.212,488.2,474.251Zm2.731-.1c0,2.958.016,5.765-.012,8.572a1,1,0,0,0,.77,1.125q15.244,5.865,30.462,11.8c.6.236.856.19.946-.5a70.968,70.968,0,0,0,.582-7.121,1.307,1.307,0,0,0-1-1.484c-6.814-2.625-13.608-5.3-20.409-7.961C498.542,477.12,494.811,475.664,490.933,474.148Zm-4.9-17.6c0,1.273.018,2.547-.009,3.819-.011.491.113.69.649.683q2.888-.043,5.778,0c.517.007.668-.157.664-.668q-.034-3.77,0-7.54c0-.488-.112-.7-.648-.692q-2.888.04-5.778,0c-.517-.007-.675.171-.663.678C486.053,454.066,486.033,455.307,486.033,456.548Z" transform="translate(-442.057 -449.432)" fill="#fff"/>
      <path id="Path_340" data-name="Path 340" d="M520.265,893.706a18.367,18.367,0,0,1-8.179-1.712,16.866,16.866,0,0,0-14.323-.058,19.875,19.875,0,0,1-16.786-.077,16.392,16.392,0,0,0-13.774,0,19.82,19.82,0,0,1-16.964-.009,15.87,15.87,0,0,0-6.551-1.426,1.515,1.515,0,0,1-1.568-.767c-.471-.968.2-1.9,1.431-1.927a18.638,18.638,0,0,1,8.061,1.762,16.362,16.362,0,0,0,13.776.153,21.586,21.586,0,0,1,10.581-1.863,17.249,17.249,0,0,1,5.944,1.52,17.578,17.578,0,0,0,15.147.006,18.64,18.64,0,0,1,15.419-.071,18.182,18.182,0,0,0,15.533-.028,16.872,16.872,0,0,1,7.237-1.485c1.129.008,1.694.451,1.718,1.306.025.887-.561,1.37-1.735,1.389a15.963,15.963,0,0,0-6.635,1.495A17.8,17.8,0,0,1,520.265,893.706Z" transform="translate(-441.97 -801.462)" fill="#fff"/>
    </g>
  </g>
</svg>
