<svg xmlns="http://www.w3.org/2000/svg" width="186.278" height="210.792" viewBox="0 0 186.278 210.792">
  <g id="Group_748" data-name="Group 748" transform="translate(-597.298 -209.195)">
    <g id="Group_746" data-name="Group 746" transform="translate(597.298 209.195)">
      <g id="Group_743" data-name="Group 743" transform="translate(46.771 26.036)">
        <path id="Path_7028" data-name="Path 7028" d="M876.847,425.235a12.8,12.8,0,1,1,12.842-12.8A12.836,12.836,0,0,1,876.847,425.235Zm0-25.037a12.236,12.236,0,1,0,12.276,12.236A12.27,12.27,0,0,0,876.847,400.2Z" transform="translate(-831.308 -368.926)" fill="#4f4649"/>
        <g id="Group_742" data-name="Group 742">
          <g id="Group_730" data-name="Group 730" transform="translate(0 45.1)">
            <path id="Path_7029" data-name="Path 7029" d="M767.493,447.938H754.552a.291.291,0,0,0,0,.582h12.579c.322,0,.591-.108.6-.243C767.734,448.2,767.73,447.938,767.493,447.938Z" transform="translate(-754.27 -447.938)" fill="#404040"/>
            <path id="Path_7030" data-name="Path 7030" d="M803.379,447.938c-.322,0-.578.089-.574.2s-.012.343.2.356a2.7,2.7,0,0,0,.412.026h5.942a.291.291,0,0,0,0-.582Z" transform="translate(-788.343 -447.938)" fill="#404040"/>
            <path id="Path_7031" data-name="Path 7031" d="M994.055,447.938h-5.3a.291.291,0,0,0,0,.582h5.3c.322,0,.584-.13.584-.291S994.377,447.938,994.055,447.938Z" transform="translate(-918.686 -447.938)" fill="#404040"/>
            <path id="Path_7032" data-name="Path 7032" d="M1013.138,447.938c-.322,0-.6.092-.613.206a.292.292,0,0,0,.188.347c.174.062.112.029.435.029h13.218a.291.291,0,0,0,0-.582Z" transform="translate(-935.572 -447.938)" fill="#404040"/>
          </g>
          <g id="Group_731" data-name="Group 731" transform="translate(7.582 35.067)">
            <path id="Path_7033" data-name="Path 7033" d="M785.04,477.186,779.9,478.56a.251.251,0,0,0,.131.485l5.293-1.414c.311-.083.5-.248.421-.371S785.351,477.1,785.04,477.186Z" transform="translate(-779.715 -458.406)" fill="#404040"/>
            <path id="Path_7034" data-name="Path 7034" d="M803.755,469.054c-.311.083-.527.257-.482.389s.334.171.645.088l9.916-2.648a.251.251,0,0,0-.13-.485Z" transform="translate(-796.25 -450.857)" fill="#404040"/>
            <path id="Path_7035" data-name="Path 7035" d="M983.9,421.747l-8.851,2.364a.251.251,0,0,0,.13.485l8.84-2.361c.311-.083.532-.258.5-.393S984.213,421.664,983.9,421.747Z" transform="translate(-916.722 -419.488)" fill="#404040"/>
            <path id="Path_7036" data-name="Path 7036" d="M1011.377,415.938c-.311.083-.53.258-.488.39s.328.173.639.089l6.21-1.658a.251.251,0,0,0-.13-.485Z" transform="translate(-942.005 -414.265)" fill="#404040"/>
          </g>
          <g id="Group_732" data-name="Group 732" transform="translate(6.057 22.543)">
            <path id="Path_7037" data-name="Path 7037" d="M781.3,510.779l-6.56,3.775a.291.291,0,0,0,.292.5l6.611-3.8c.279-.161.421-.392.327-.523S781.58,510.619,781.3,510.779Z" transform="translate(-774.598 -469.403)" fill="#404040"/>
            <path id="Path_7038" data-name="Path 7038" d="M802.92,494.4c-.279.161-.433.4-.342.533s.394.109.673-.052l9.359-5.386a.291.291,0,0,0-.292-.5Z" transform="translate(-794.223 -454.176)" fill="#404040"/>
            <path id="Path_7039" data-name="Path 7039" d="M982.238,397.7l-4.676,2.691a.291.291,0,0,0,.292.5l4.689-2.7c.28-.161.432-.4.348-.536S982.518,397.542,982.238,397.7Z" transform="translate(-916.987 -390.021)" fill="#404040"/>
            <path id="Path_7040" data-name="Path 7040" d="M998.878,378.869c-.434.278-.357.5-.3.562.09.106.394.058.674-.1l11.38-6.549a.291.291,0,0,0-.292-.5Z" transform="translate(-931.809 -372.233)" fill="#404040"/>
          </g>
          <g id="Group_733" data-name="Group 733" transform="translate(17.679 17.622)">
            <path id="Path_7041" data-name="Path 7041" d="M820.635,516.73l-6.956,6.933a.251.251,0,0,0,.356.355l7-6.978c.228-.227.323-.482.213-.567S820.862,516.5,820.635,516.73Z" transform="translate(-813.605 -468.555)" fill="#404040"/>
            <path id="Path_7042" data-name="Path 7042" d="M841.44,502.425c-.228.227-.323.48-.212.566s.385-.029.613-.256l4.2-4.186a.252.252,0,0,0-.356-.355Z" transform="translate(-832.965 -455.69)" fill="#404040"/>
            <path id="Path_7043" data-name="Path 7043" d="M968.226,364.77c-.228.227-.354.51-.275.627s.333.025.561-.2l9.077-9.047a.252.252,0,0,0-.357-.355Z" transform="translate(-921.945 -355.718)" fill="#404040"/>
            <path id="Path_7044" data-name="Path 7044" d="M958.69,390.469l-2.148,2.141a.252.252,0,0,0,.356.355l2.117-2.11c.228-.227.339-.5.249-.6S958.918,390.241,958.69,390.469Z" transform="translate(-913.9 -379.931)" fill="#404040"/>
          </g>
          <g id="Group_734" data-name="Group 734" transform="translate(57.507 6.038)">
            <path id="Path_7045" data-name="Path 7045" d="M952.561,346.181l-5.247,9.059a.292.292,0,0,0,.506.291l5.169-8.924c.161-.279.2-.6.078-.717S952.722,345.9,952.561,346.181Z" transform="translate(-947.272 -337.203)" fill="#404040"/>
            <path id="Path_7046" data-name="Path 7046" d="M968.632,323.778c-.161.278-.2.6-.078.717s.344-.013.506-.291l4.016-6.934a.292.292,0,0,0-.506-.291Z" transform="translate(-962.164 -316.837)" fill="#404040"/>
          </g>
          <g id="Group_735" data-name="Group 735" transform="translate(50.761 7.557)">
            <path id="Path_7047" data-name="Path 7047" d="M927.444,344.245l-2.8,10.425a.252.252,0,0,0,.487.13l2.777-10.332c.084-.31.05-.615-.078-.677S927.528,343.934,927.444,344.245Z" transform="translate(-924.632 -337.272)" fill="#404040"/>
            <path id="Path_7048" data-name="Path 7048" d="M935.743,326.941c-.083.31-.046.606.082.666s.3-.141.382-.452l1.319-4.907a.252.252,0,0,0-.487-.13Z" transform="translate(-932.401 -321.938)" fill="#404040"/>
          </g>
          <g id="Group_736" data-name="Group 736" transform="translate(45.246)">
            <path id="Path_7049" data-name="Path 7049" d="M906.123,341.346v7.206a.292.292,0,0,0,.584,0v-7.144c0-.435-.167-.631-.292-.631C906.2,340.777,906.123,341.024,906.123,341.346Z" transform="translate(-906.123 -327.606)" fill="#404040"/>
            <path id="Path_7050" data-name="Path 7050" d="M906.415,308.541c.108,0,.292-.08.292-.771V296.856a.292.292,0,0,0-.584,0v10.965C906.123,308.3,906.308,308.541,906.415,308.541Z" transform="translate(-906.123 -296.574)" fill="#404040"/>
          </g>
          <g id="Group_737" data-name="Group 737" transform="translate(35.181 7.557)">
            <path id="Path_7051" data-name="Path 7051" d="M875.692,332.734l-2.854-10.616a.252.252,0,0,0-.487.13l2.862,10.645c.083.311.258.526.39.483S875.775,333.044,875.692,332.734Z" transform="translate(-872.341 -321.938)" fill="#404040"/>
            <path id="Path_7052" data-name="Path 7052" d="M884.32,364.292c-.083-.31-.256-.517-.386-.464s-.166.351-.083.662l1.177,4.379a.252.252,0,0,0,.487-.13Z" transform="translate(-880.39 -351.34)" fill="#404040"/>
          </g>
          <g id="Group_738" data-name="Group 738" transform="translate(22.616 6.037)">
            <path id="Path_7053" data-name="Path 7053" d="M837.1,328l-6.381-11.016a.292.292,0,0,0-.506.292l6.411,11.069c.161.278.4.422.526.327S837.262,328.274,837.1,328Z" transform="translate(-830.173 -316.837)" fill="#404040"/>
            <path id="Path_7054" data-name="Path 7054" d="M855.189,359.243a.915.915,0,0,0-.4-.4.232.232,0,0,0-.315.2,1.2,1.2,0,0,0,.235.546l2.929,5.056a.292.292,0,0,0,.506-.291Z" transform="translate(-847.237 -346.316)" fill="#404040"/>
          </g>
          <g id="Group_739" data-name="Group 739" transform="translate(17.679 17.622)">
            <path id="Path_7055" data-name="Path 7055" d="M816.847,358.822l.011-.01a.4.4,0,0,0,.016-.108.585.585,0,0,0-.026-.094c0-.01-.009-.017-.013-.026l-.2-.2-2.6-2.591a.252.252,0,0,0-.356.356l2.446,2.438c.228.227.474.379.551.341l.136-.068A.46.46,0,0,1,816.847,358.822Z" transform="translate(-813.604 -355.717)" fill="#404040"/>
            <path id="Path_7056" data-name="Path 7056" d="M827.164,368.872c-.228-.227-.493-.332-.589-.232s.013.369.241.6l8.59,8.562a.252.252,0,0,0,.356-.355Z" transform="translate(-822.685 -364.763)" fill="#404040"/>
          </g>
          <g id="Group_740" data-name="Group 740" transform="translate(6.057 22.543)">
            <path id="Path_7057" data-name="Path 7057" d="M987.5,494.547l-9.647-5.552a.291.291,0,0,0-.292.5l9.564,5.5c.279.161.6.2.7.07S987.782,494.708,987.5,494.547Z" transform="translate(-916.988 -454.175)" fill="#404040"/>
            <path id="Path_7058" data-name="Path 7058" d="M1017.066,511.739c-.279-.161-.574-.187-.656-.056-.049.078-.181.193.054.381,0,0,0,0,0,0a2.136,2.136,0,0,0,.279.161l6.088,3.5a.291.291,0,0,0,.291-.5Z" transform="translate(-944.303 -470.073)" fill="#404040"/>
            <path id="Path_7059" data-name="Path 7059" d="M779.443,375.472l.022-.007c.006-.006.078-.041.078-.041s.107-.087.051-.033c.017-.015.032-.032.047-.048s.007-.011.018-.028l.016-.028c0-.007,0-.018.006-.033a.567.567,0,0,0,.005-.129c0-.008,0-.014-.007-.022a1.457,1.457,0,0,0-.106-.215l-.21-.122-4.329-2.491a.292.292,0,0,0-.292.5l4.32,2.486C779.214,375.352,779.349,375.425,779.443,375.472Z" transform="translate(-774.598 -372.232)" fill="#404040"/>
            <path id="Path_7060" data-name="Path 7060" d="M795.836,384.365c-.279-.161-.569-.177-.657-.042s.061.372.34.532l11.605,6.678a.291.291,0,0,0,.292-.5Z" transform="translate(-789.029 -380.656)" fill="#404040"/>
          </g>
          <g id="Group_741" data-name="Group 741" transform="translate(7.582 35.067)">
            <path id="Path_7061" data-name="Path 7061" d="M979.43,467.532l-4.248-1.135a.251.251,0,0,0-.13.485l4.256,1.137c.311.083.591.042.625-.093S979.742,467.615,979.43,467.532Z" transform="translate(-916.723 -450.857)" fill="#404040"/>
            <path id="Path_7062" data-name="Path 7062" d="M996.359,472.222c-.311-.083-.627-.053-.7.071s.125.295.436.378l10.814,2.888a.251.251,0,0,0,.13-.484Z" transform="translate(-931.305 -454.92)" fill="#404040"/>
            <path id="Path_7063" data-name="Path 7063" d="M790.765,417.142l-10.739-2.868a.251.251,0,0,0-.13.485l10.789,2.882c.312.083.569.038.593-.1S791.076,417.226,790.765,417.142Z" transform="translate(-779.715 -414.265)" fill="#404040"/>
            <path id="Path_7064" data-name="Path 7064" d="M822.1,425.619c-.311-.083-.584-.039-.6.1s.226.32.538.4l4.468,1.193a.251.251,0,0,0,.13-.485Z" transform="translate(-809.044 -422.206)" fill="#404040"/>
          </g>
        </g>
      </g>
      <g id="Group_744" data-name="Group 744" transform="translate(18.908 110.832)">
        <path id="Path_7065" data-name="Path 7065" d="M808.96,581.165h-148.2s2.1,6.445,6.46,16.278h134.95Z" transform="translate(-660.755 -581.165)" fill="#d65e2e"/>
        <path id="Path_7066" data-name="Path 7066" d="M817.614,637.292a180.855,180.855,0,0,1-8.974,16.294H691.05c-3.182-5.983-5.84-11.52-7.972-16.294Z" transform="translate(-676.427 -620.568)" fill="#e16f2e"/>
        <path id="Path_7067" data-name="Path 7067" d="M827.714,693.472c-3.517,5.7-7.256,11.154-11.075,16.294H720.2c-3.6-5.6-6.778-11.107-9.563-16.294Z" transform="translate(-695.772 -660.009)" fill="#d97d2e"/>
        <path id="Path_7068" data-name="Path 7068" d="M839.528,749.652c-4.36,5.84-8.831,11.3-13.191,16.294h-71c-4.281-5.378-8.163-10.884-11.648-16.294Z" transform="translate(-718.979 -699.449)" fill="#ed9737"/>
        <path id="Path_7069" data-name="Path 7069" d="M854.207,805.832c-5.41,6.19-10.661,11.648-15.339,16.278h-40.13a166.458,166.458,0,0,1-14.782-16.278Z" transform="translate(-747.247 -738.89)" fill="#f9de4b"/>
        <path id="Path_7070" data-name="Path 7070" d="M874.383,862.012c-10.534,10.327-18.092,16.278-18.092,16.278a127.1,127.1,0,0,1-21.068-16.278Z" transform="translate(-783.238 -778.331)" fill="#f9de4b"/>
      </g>
      <g id="Group_745" data-name="Group 745">
        <path id="Path_7071" data-name="Path 7071" d="M606.974,440.777l-1.1,4.074,2.067,1.377-.65,2.416-10-6.922.7-2.611,12.113-.941-.674,2.506Zm-2.079.132-4.723.21,3.968,2.6Z" transform="translate(-597.298 -369.944)"/>
        <path id="Path_7072" data-name="Path 7072" d="M619.946,381.689l1.133-2.108,8.274,4.446,2.685-5,1.814.975-3.817,7.1Z" transform="translate(-613.198 -328.427)"/>
        <path id="Path_7073" data-name="Path 7073" d="M657.931,323.784l1.566-1.81,7.1,6.146,3.711-4.289,1.557,1.347-5.277,6.1Z" transform="translate(-639.865 -288.37)"/>
        <path id="Path_7074" data-name="Path 7074" d="M717.909,266.631l-4.121-5.707,1.972-1.423,4.121,5.706a5.9,5.9,0,0,1,1.206,2.638q.235,2.131-2.177,3.873t-4.367.853a5.892,5.892,0,0,1-2.125-1.973l-4.121-5.707,1.972-1.424,4.121,5.707a3.972,3.972,0,0,0,1.237,1.234,2.339,2.339,0,0,0,3.068-2.215A3.983,3.983,0,0,0,717.909,266.631Z" transform="translate(-675.222 -244.512)"/>
        <path id="Path_7075" data-name="Path 7075" d="M781.533,235.64l-2.292.923,1.678,4.166-2.169.874-4.28-10.623,5.21-2.1a5.232,5.232,0,0,1,1.829-.419,2.9,2.9,0,0,1,1.319.332,3.539,3.539,0,0,1,.908.673,3.135,3.135,0,0,1,.652,1.036,3.427,3.427,0,0,1,.218,1.642,2.3,2.3,0,0,1-.845,1.542,2.141,2.141,0,0,1,1.38.42,3.769,3.769,0,0,1,.976,1.538l.288.713a5.836,5.836,0,0,0,.455.964.956.956,0,0,0,.648.443l.107.267-2.443.984q-.243-.312-.374-.511a5.639,5.639,0,0,1-.462-.877l-.412-.981a2.082,2.082,0,0,0-.917-1.206A2.126,2.126,0,0,0,781.533,235.64Zm.569-2.474a1.276,1.276,0,0,0,.181-1.464,1.425,1.425,0,0,0-1.164-1.039,2.622,2.622,0,0,0-1.157.248l-2.58,1.04,1.15,2.854,2.515-1.013A3.021,3.021,0,0,0,782.1,233.166Z" transform="translate(-721.68 -222.721)"/>
        <path id="Path_7076" data-name="Path 7076" d="M856.9,215.646l-5.5.826.437,2.912,6.269-.941.306,2.036-8.583,1.288-1.7-11.325,8.306-1.247.3,2.005-5.993.9.361,2.405,5.5-.825Z" transform="translate(-773.388 -209.195)"/>
        <path id="Path_7077" data-name="Path 7077" d="M977.656,215.493l-.481,1.97-3.328-.812-2.234,9.155-2.34-.571,2.234-9.156-3.344-.816.481-1.97Z" transform="translate(-857.66 -212.073)"/>
        <path id="Path_7078" data-name="Path 7078" d="M1029.824,244.287l-2.2-1.119-2.033,4-2.085-1.059,5.185-10.211,5.009,2.543a5.23,5.23,0,0,1,1.518,1.1,2.893,2.893,0,0,1,.618,1.211,3.562,3.562,0,0,1,.09,1.127,3.15,3.15,0,0,1-.351,1.172,3.436,3.436,0,0,1-1.094,1.244,2.3,2.3,0,0,1-1.717.379,2.139,2.139,0,0,1,.591,1.315,3.77,3.77,0,0,1-.517,1.746l-.348.686a5.876,5.876,0,0,0-.427.977.957.957,0,0,0,.093.779l-.13.257-2.348-1.193q.075-.388.139-.617a5.634,5.634,0,0,1,.357-.926l.468-.956a2.081,2.081,0,0,0,.3-1.483A2.122,2.122,0,0,0,1029.824,244.287Zm2.238-1.2a1.276,1.276,0,0,0,1.221-.826,1.424,1.424,0,0,0,.017-1.56,2.622,2.622,0,0,0-.948-.708l-2.48-1.259-1.393,2.743,2.418,1.228A3.024,3.024,0,0,0,1032.063,243.088Z" transform="translate(-896.511 -227.944)"/>
        <path id="Path_7079" data-name="Path 7079" d="M1087.176,292.135l-3.2-2.75-2.136,1.268-1.9-1.631L1090.509,283l2.05,1.763-4.392,11.328L1086.2,294.4Zm.78-1.931,1.854-4.349-4.057,2.454Z" transform="translate(-936.134 -261.011)"/>
        <path id="Path_7080" data-name="Path 7080" d="M1139.209,329.29l1.456,1.879-9.052,7.015-1.456-1.879Z" transform="translate(-971.386 -293.506)"/>
        <path id="Path_7081" data-name="Path 7081" d="M1166.05,373.256l1.078,2.136-8.386,4.232,2.555,5.064-1.838.928-3.633-7.2Z" transform="translate(-989.406 -324.372)"/>
        <path id="Path_7082" data-name="Path 7082" d="M1184,445.94a4.2,4.2,0,0,0,.512,1.29,1.328,1.328,0,0,0,1.531.653.98.98,0,0,0,.733-.694,5.361,5.361,0,0,0,.145-1.645l-.028-1.242a7.666,7.666,0,0,1,.257-2.61,2.791,2.791,0,0,1,2.127-1.72,3.309,3.309,0,0,1,2.75.47,4.731,4.731,0,0,1,1.779,2.945,5,5,0,0,1-.188,3.229,3.426,3.426,0,0,1-2.381,1.971l-.553-2.232a1.644,1.644,0,0,0,1.208-1.228,3.032,3.032,0,0,0-.056-1.419,2.6,2.6,0,0,0-.718-1.343,1.188,1.188,0,0,0-1.143-.285.986.986,0,0,0-.759.749,6.648,6.648,0,0,0-.1,1.562l.015,2.03a5.109,5.109,0,0,1-.336,2.1,2.8,2.8,0,0,1-2.023,1.558,3.3,3.3,0,0,1-2.819-.538,5.03,5.03,0,0,1-1.823-3.042,5.5,5.5,0,0,1,.145-3.662,3.4,3.4,0,0,1,2.418-1.92l.55,2.217a2.355,2.355,0,0,0-1.036.7A2.459,2.459,0,0,0,1184,445.94Z" transform="translate(-1007.704 -371.131)"/>
      </g>
      <path id="Path_7083" data-name="Path 7083" d="M786.88,773.817l-10.895,11.326c-.66.546-.789.979-.042.518l16.791-10.6c.747-.461,1.36-.206,1.37.57l.046,3.627a6.231,6.231,0,0,1-.7,2.674l-5.319,9.348c-.4.7-.29,1.2.22.555l7.526-10.051a18.15,18.15,0,0,0,1.583-2.466l2.745-5.375c.364-.714.95-.712,1.309,0l7.4,14.784c.358.716.595.669.527-.1l-1.45-16.74c-.067-.774-2.148-7.493-1.614-6.858l8.8,7.952c.534.635.44,4.725,1.309,5l1.8.57a4.855,4.855,0,0,1,2.339,1.749l5.94,6.839c.423.691,1.136.739.856,0l-4.5-9.249c-.281-.739-2.756-1.24-3.367-1.824l-2.77-4.9c-.611-.584-.382-.885.51-.671l4.481,1.073a6.558,6.558,0,0,1,2.686,1.471l9.146,10.208c.591.6,1.432.105-.369-1.661l-6.4-9.176c-.468-.67-.246-.834.5-.366l15.524,9.19c4.988,2.313,3.915.949,3.218.435l-21.952-14.9a7.943,7.943,0,0,0-2.913-1.2l-7.661-1.237a22.605,22.605,0,0,1-3.2-.809l-2.152-.752a8.032,8.032,0,0,0-3.209-.3l-2.64.384-7.755,1.2a8.193,8.193,0,0,0-2.938,1.162c-5.175,3.657-22.065,15.419-29.62,20.981-2.04,1.5,1.453.1,1.453.1.744-.465,29.014-18.3,29.014-17.52l-2.434,3.32C790.066,772.867,787.54,773.271,786.88,773.817Z" transform="translate(-712.5 -597.579)" fill="#404040"/>
    </g>
    <g id="DDwNMb" transform="translate(664.546 295.355)">
      <g id="Group_747" data-name="Group 747">
        <path id="Path_7084" data-name="Path 7084" d="M869,581.032a1.331,1.331,0,0,0-.111-.506,1.906,1.906,0,0,0-1.959-1.185c-2.212-.016-4.25-.664-4.819-2.987-.553-2.275-2.022-2.417-3.871-2.212.474-.964,1.944-.174,2.054-1.469.379-4.724,1.454-9.338,2.244-14,.332-1.975,0-3.144-2.149-3.381a1.463,1.463,0,0,1-.016-.3c2.56.4,2.481.4,2.165-2.244-.743-6.115-1.738-12.23-1.248-18.424a1.979,1.979,0,0,0-.98-2.054c-1,1.959-1.975,3.887-2.955,5.831.917-2.813,2.07-5.515,3.24-8.2.442-1,.679-2.354,1.469-2.891,2.133-1.438,3.018-3.144,2.291-5.657-.095-.332.221-.838-.285-1.043-.521-.221-.616.316-.9.569-2.591,2.275-4.076,2.37-7.047.3a20.237,20.237,0,0,0,3.018.774c1.106.111,2.449-.063,2.228-1.58-.364-2.56-.569-5.183-2.007-7.474-.427-.664-.758-1.454.095-1.975.932-.585-.142-1.359.3-2.038.664,1.074,1.406,2.338,2.718,1.517a5.053,5.053,0,0,0,2.244-2.655c.206-1.975,1.043-1.359,2.054-.98.822.284,1.549.174,1.849-.727.284-.79-.205-1.311-.917-1.58-1.264-.474-2.528-.916-4.093-1.47,2.7.127,2.765.1,2.56-1.232-.284-1.928-2.37-3.413-4.788-3.4-2.007,0-4.819,1.928-4.835,3.508a27.471,27.471,0,0,1-.932,5.309c-2.2-.948-3.445-.648-5.293,1.311a36.184,36.184,0,0,0-5.088,7.332,23.08,23.08,0,0,1,6.4-9.765c-.837.4-1.39-1.738-2.733-.853-2.038,1.343-4.645,1.09-6.952,2.923.821-1.406,1.975-1.564,2.686-2.354-3.413-.237-6.431,1.959-6.1,5.167.269,2.607.047,4.377-1.675,6.541-1.5,1.9-1.2,4.851-1.153,7.4a3.833,3.833,0,0,0,.885,2.56c.885-.869,1.217-2.07,2.781-2.939-1.754,2.323-2.765,4.235-1.027,6.494a1.282,1.282,0,0,1-.142,1.517c.916-.758,1.327-.474,1.485.679.364,2.576.743,5.167,1.249,7.727.174.9-.047,2.054,1.327,2.86-.458-3.366-.885-6.447-1.39-10.176,2.607,2.607,3.682.221,5.278-.7-2.2,1.517-2.354,3.4-1.312,5.562a4.306,4.306,0,0,1,.142.806c1.074,4.693.727,9.417.237,14.142-.079.727-.411,1.5.885,1.659a11.35,11.35,0,0,0-6.779,2.481c-1.6,1.3-2.955,2.86-4.551,4.156-1.043.853-1.438,1.659-.6,3.034-.932-1.422-1.675-1.138-2.528-.221-.506.553-1.232,1.375-1.77,1.311-2.544-.284-3.6,1.833-5.088,3.065-2.512,2.086-2.307,2.323.047,4.772.948.964,2.449.869,3.129,2.133,1.5,2.828,4.187,3.476,7.079,3.792,1.754.189,1.454-1.043,1.3-1.991-.111-.616-.838-.838-1.343-1.185-1.833-1.264-1.817-2.4-.474-4.092a1.826,1.826,0,0,0-.569-2.829c-.553-.316-1.106-.616-1.675-.917,2.007.822,3.16-.885,4.44-2.212a5.134,5.134,0,0,1,1.406-.822c2.149-1.09,4.282-2.2,6.447-3.208a3.33,3.33,0,0,0,1.77-1.849c1.043-2.481,2.18-4.914,3.286-7.379.111.047.206.095.3.126q-4.171,10.523-8.359,21.031l.521.19c1.153-2.844,2.812-5.594,3.35-8.564.869-4.661,5.594-5.767,7.537-9.307a.2.2,0,0,1,.189-.063c1.549.332,1.564-1,1.912-1.849.822-1.928,1.564-3.9,2.323-5.862a44.319,44.319,0,0,1-1.406,5.8c-.142.442-.727.964.032,1.406,1,.6.569,1.485.253,2.149a15.406,15.406,0,0,0-1.027,9.07c.221,1.438-.174,3.176,2.212,3.1-.585.711-1.959.032-1.77,1.28.49,3.018-1.3,5.594-1.548,8.438a2.619,2.619,0,0,1-.237.98Z" transform="translate(-822.991 -498.362)" fill="#404040"/>
        <path id="Path_7085" data-name="Path 7085" d="M870.9,613.029a7.3,7.3,0,0,1,.27,3.84,68.473,68.473,0,0,1-1.558,9.331q.649-6.578,1.3-13.161A.027.027,0,0,0,870.9,613.029Z" transform="translate(-855.721 -578.863)" fill="#404040"/>
        <path id="Path_7086" data-name="Path 7086" d="M878.444,761.455c-.284,1.106-.553,2.212-.885,3.3-.111.316-.158.869-.505.932a.269.269,0,0,1-.158,0,.458.458,0,0,1-.142-.032c-.743-.253-.411-.9-.174-1.39.474-.964.964-1.912,1.453-2.876C878.175,761.408,878.3,761.439,878.444,761.455Z" transform="translate(-860.414 -683.019)" fill="#404040"/>
      </g>
    </g>
  </g>
</svg>
