<?xml version="1.0" encoding="UTF-8"?> <svg xmlns="http://www.w3.org/2000/svg" xmlns:xlink="http://www.w3.org/1999/xlink" width="475.433" height="136.02" viewBox="0 0 475.433 136.02"><defs><linearGradient id="a" x1="0.5" x2="0.5" y2="1" gradientUnits="objectBoundingBox"><stop offset="0" stop-color="#f73d66"></stop><stop offset="1" stop-color="#ed6f47"></stop></linearGradient></defs><g transform="translate(-463 -140.589)"><g transform="translate(463 140.589)"><path d="M581.349,174.8a16.736,16.736,0,0,0-.576,1.889c-.572,3.172-1.17,6.341-1.63,9.529-.4,2.769-.707,5.557-.917,8.347a163.144,163.144,0,0,0-.5,18.156c.14,3.921.382,7.842.646,11.758a117.1,117.1,0,0,0,2.2,15.905c.092.446.208.888.331,1.328a.6.6,0,0,1-.45.839c-.378.119-.753.247-1.127.378-1.719.607-3.433,1.232-5.16,1.82a108.273,108.273,0,0,0-11.4,4.852,151.15,151.15,0,0,0-14.075,7.548c-3.662,2.231-7.3,4.521-10.843,6.933-2.967,2.015-5.845,4.172-8.656,6.4-2.118,1.68-4.067,3.571-6.09,5.37-.273.241-.541.485-.835.75a1.166,1.166,0,0,1-.321-.158,99.01,99.01,0,0,0-8.018-6.91,135.15,135.15,0,0,0-12.8-9.087c-1.725-1.086-3.493-2.1-5.237-3.152-1.275-.771-2.527-1.583-3.82-2.319-1.427-.81-2.9-1.532-4.332-2.334a89.1,89.1,0,0,0-8.6-3.991c-2.126-.911-4.25-1.832-6.421-2.623-2.683-.981-5.42-1.818-8.123-2.749a11.507,11.507,0,0,1-1.495-.769c.066-.376.109-.7.183-1.016a126.031,126.031,0,0,0,2.264-13.588c.592-4.838.921-9.7,1.075-14.563a174.1,174.1,0,0,0-.68-21.892c-.208-2.181-.327-4.379-.7-6.534-.483-2.782-1.182-5.529-1.789-8.29-.144-.652-.288-1.3-.45-2.042a9.806,9.806,0,0,1,1.024-.424,123.8,123.8,0,0,0,23.177-9.5,187.2,187.2,0,0,0,16.29-9.556,154.637,154.637,0,0,0,12.827-9.353c2-1.637,3.9-3.394,5.925-5.171a4.841,4.841,0,0,1,.535.415,116.5,116.5,0,0,0,16.989,13.206q6.489,4.342,13.354,8.072c3.719,2.011,7.49,3.925,11.238,5.882.107.058.222.1.327.162a44.723,44.723,0,0,0,6.152,2.749c1.986.767,3.984,1.495,5.991,2.2,1.2.426,2.434.777,3.649,1.172C580.757,174.539,581.024,174.671,581.349,174.8ZM571.56,236.56c-.039-.461-.047-.82-.1-1.174-.132-.839-.315-1.672-.43-2.514-.5-3.676-1.116-7.344-1.431-11.037-.333-3.908-.485-7.839-.508-11.762-.021-3.586.183-7.177.389-10.761q.265-4.6.773-9.182c.257-2.356.689-4.694,1.03-7.042a1.89,1.89,0,0,0-.095-1.39c-.136,0-.236-.031-.31,0-1.772.8-3.588,1.521-5.3,2.436a11.755,11.755,0,0,0-3.631,2.72,5.5,5.5,0,0,0-1.647,2.677c-.3,2.2-.724,4.392-.876,6.6-.259,3.762-.434,7.535-.485,11.306a92.584,92.584,0,0,0,.428,11.67c.031.278,0,.561,0,.973-.366-.238-.6-.376-.812-.535q-2.356-1.724-4.706-3.458c-1.4-1.028-2.786-2.064-4.19-3.084a1.689,1.689,0,0,1-.818-1.614c.049-.574.035-1.155.033-1.733a82.016,82.016,0,0,1,1.382-16.524,3.855,3.855,0,0,0,0-.724,1.717,1.717,0,0,0-.31-.206c-1.885-.759-3.779-1.5-5.662-2.272-1.378-.561-2.774-1.1-4.11-1.746a72.058,72.058,0,0,1-13.3-7.913c-1.361-1.071-2.689-2.186-4.034-3.277-.228-.185-.467-.36-.621-.479-1.343,1.106-2.578,2.186-3.878,3.181-1.326,1.014-2.7,1.963-4.079,2.907-.777.53-1.614.973-2.408,1.482a59.741,59.741,0,0,1-6.3,3.656c-.925.448-1.844.911-2.821,1.4.241.2.415.372.609.512,1.092.777,2.19,1.542,3.277,2.321q7.2,5.15,14.4,10.309c3.728,2.681,7.426,5.407,11.158,8.082,3.586,2.568,7.2,5.093,10.8,7.644,5.311,3.769,10.607,7.554,15.928,11.306,1.367.964,2.761,1.9,4.213,2.724,2.512,1.425,5.078,2.753,7.624,4.118C570.972,236.285,571.215,236.392,571.56,236.56Zm-98.952-56.669a5.341,5.341,0,0,0,0,.715q.515,3.2,1.042,6.394c.265,1.62.6,3.232.773,4.862.3,2.843.567,5.7.713,8.549a159.031,159.031,0,0,1-.676,26.53,39.554,39.554,0,0,1-1.141,7.015,2.261,2.261,0,0,0,.074.722c.917-.315,1.745-.588,2.566-.884a20.029,20.029,0,0,0,6.633-4.1A4.071,4.071,0,0,0,483.977,227c.315-3,.734-5.981.987-8.981a102.382,102.382,0,0,0,.315-14.686c-.1-1.639-.212-3.277-.308-4.916-.023-.409,0-.82,0-1.386.417.263.726.44,1.016.641q3.565,2.47,7.126,4.945c.65.45,1.312.886,1.964,1.332a1.667,1.667,0,0,1,.785,1.542c-.037,1.215,0,2.434-.008,3.651a66.814,66.814,0,0,1-1.486,15.445c.1.049.23.123.366.173a62.925,62.925,0,0,1,10.448,4.764c1.11.654,2.422,1.022,3.263,2.107.068.086.208.117.317.169,1.065.514,2.179.944,3.187,1.55a68.653,68.653,0,0,1,9.75,7.056,6.538,6.538,0,0,0,.594.411,84.534,84.534,0,0,1,19.092-12.535c-.555-.45-.981-.826-1.435-1.162-2.128-1.573-4.272-3.125-6.4-4.7-1.443-1.067-2.858-2.169-4.3-3.24-1.293-.962-2.6-1.9-3.906-2.848-.956-.7-1.9-1.408-2.874-2.081-1.4-.972-2.827-1.9-4.227-2.874-1.55-1.073-3.084-2.175-4.63-3.257-2.292-1.6-4.616-3.168-6.881-4.809-2.934-2.122-5.814-4.32-8.74-6.456-2.48-1.811-5-3.571-7.488-5.37-1.974-1.423-3.869-2.967-5.909-4.287-3.674-2.381-7.43-4.636-11.158-6.937A7.514,7.514,0,0,0,472.608,179.891Zm48.18,84.386c.154-.576.3-1,.38-1.439a23.706,23.706,0,0,0,.313-7.089,11.1,11.1,0,0,0-1.118-3.742,2.986,2.986,0,0,0-.767-1c-2.064-1.608-4.133-3.211-6.242-4.76-1.69-1.242-3.419-2.428-5.165-3.594-1.351-.9-2.774-1.692-4.118-2.6-1.283-.866-2.739-1.388-4.05-2.208a26.815,26.815,0,0,0-4.188-1.98c-3.16-1.277-6.345-2.49-9.525-3.713a1.6,1.6,0,0,0-.794-.107,16.53,16.53,0,0,0-6.071,1.855c-1.4.839-2.7,1.859-4.032,2.815-.358.257-.679.567-1.073.9.28.1.475.181.672.251,1.262.444,2.558.808,3.779,1.347q4.672,2.063,9.283,4.264c1.478.7,2.878,1.565,4.334,2.319,1.536.8,3.121,1.5,4.636,2.34q6.517,3.6,12.663,7.8c3.569,2.436,7.042,5.006,10.358,7.782C520.247,263.874,520.444,264.014,520.788,264.277ZM474.52,179.262a5.4,5.4,0,0,0,.477.491c1.246.97,2.459,1.992,3.76,2.885a16,16,0,0,0,5.833,2.492,3.5,3.5,0,0,0,2.142-.15c1.4-.58,2.827-1.118,4.227-1.706a122.664,122.664,0,0,0,14.836-7.619q3.3-1.949,6.443-4.147c2.34-1.637,4.6-3.39,6.865-5.132a4.732,4.732,0,0,0,1.188-1.359,9.192,9.192,0,0,0,1.108-3.734,23.028,23.028,0,0,0-.489-7.885,2.55,2.55,0,0,0-.206-.446A159.346,159.346,0,0,1,474.52,179.262Zm49.212-26.3a17.65,17.65,0,0,0-.7,2.7c-.263,2.885-.37,5.755.726,8.551a5.154,5.154,0,0,0,1.737,2.379c2.245,1.669,4.431,3.436,6.774,4.953q5.548,3.6,11.279,6.9a92.621,92.621,0,0,0,14.573,6.894,2.265,2.265,0,0,0,1.234.132,27.284,27.284,0,0,0,3.045-.944,20.47,20.47,0,0,0,5.52-3.341c.652-.522,1.273-1.081,1.959-1.669a3.457,3.457,0,0,0-.518-.395c-.6-.28-1.207-.555-1.824-.8-2.9-1.174-5.825-2.3-8.7-3.522-2.292-.977-4.54-2.06-6.8-3.121a35.017,35.017,0,0,1-4.326-2.151c-3-1.959-6.242-3.516-9.2-5.572-4.069-2.831-8.189-5.586-12.032-8.728C525.6,154.5,524.715,153.766,523.732,152.96Zm46.451,84.692a13.658,13.658,0,0,0-2.048-1.735,19.415,19.415,0,0,0-8.471-3.847,3.559,3.559,0,0,0-1.972.142c-1.785.7-3.623,1.281-5.348,2.1-3.512,1.676-7.007,3.394-10.424,5.251-2.883,1.569-5.7,3.277-8.444,5.07a76.541,76.541,0,0,0-8.565,6.353,3.471,3.471,0,0,0-.993,1.271,13.511,13.511,0,0,0-.991,3.4,21.668,21.668,0,0,0,.51,7.788c.06.218.142.43.247.74A153.106,153.106,0,0,1,570.183,237.652Z" transform="translate(-463 -140.589)" fill="url(#a)"></path></g><g transform="translate(606.433 158.886)"><text transform="translate(0 64)" fill="#000" font-size="83" font-family="Helvetica" letter-spacing="-0.05em"><tspan x="0" y="0">spydernet</tspan></text><text transform="translate(111.28 88.343)" fill="#000" font-size="24" font-family="Helvetica"><tspan x="0" y="0">resolving challenges</tspan></text></g></g></svg> 